<svg width="260" height="48" viewBox="0 0 260 48" fill="none" xmlns="http://www.w3.org/2000/svg" role="img" aria-label="Bubble Tea Palace">
  <rect x="2" y="2" width="44" height="44" rx="12" fill="#3F201B"></rect>
  <rect x="26" y="7" width="4" height="14" rx="2" fill="#F9A72A" transform="rotate(14 28 14)"></rect>
  <path d="M15 17h18l-2.4 21a3 3 0 0 1-3 2.7h-7.2a3 3 0 0 1-3-2.7L15 17Z" fill="#FDF6EC"></path>
  <path d="M16.2 27.5h15.6l-1.1 10.5a3 3 0 0 1-3 2.7h-7.2a3 3 0 0 1-3-2.7l-1.3-10.5Z" fill="#F9A72A" fill-opacity="0.85"></path>
  <circle cx="20.5" cy="36.5" r="1.9" fill="#3F201B"></circle>
  <circle cx="24.5" cy="37.5" r="1.9" fill="#3F201B"></circle>
  <circle cx="28" cy="36" r="1.9" fill="#3F201B"></circle>
  <rect x="14" y="15" width="20" height="3.4" rx="1.7" fill="#F9A72A"></rect>
  <text x="56" y="31" font-family="Georgia, serif" font-size="19" font-weight="700" fill="#FDF6EC">Bubble Tea Palace</text>
</svg>
